<svg xmlns="http://www.w3.org/2000/svg" viewBox="0 0 260 230" shape-rendering="geometricPrecision" text-rendering="geometricPrecision"><defs><filter id="b" x="-150%" y="-150%" width="400%" height="400%"><feGaussianBlur in="SourceAlpha" stdDeviation="2,2"/><feOffset dy="4" result="tmp"/><feFlood flood-color="#000"/><feComposite operator="in" in2="tmp"/><feMerge result="result"><feMergeNode/><feMergeNode in="SourceGraphic"/></feMerge></filter><filter id="c" x="-150%" y="-150%" width="400%" height="400%"><feGaussianBlur in="SourceAlpha" stdDeviation="5,5"/><feOffset dy="6" result="tmp"/><feFlood flood-color="#7638f9"/><feComposite operator="in" in2="tmp"/><feMerge result="result"><feMergeNode/><feMergeNode in="SourceGraphic"/></feMerge></filter></defs><g clip-path="url(#a)"><path d="m246.99 25-95.744-5.02c-7.17-.376-13.287 5.134-13.662 12.305l-9.313 177.742c-.376 7.172 5.132 13.291 12.302 13.667l95.743 5.019c7.17.376 13.287-5.134 13.663-12.305l9.313-177.742c.375-7.172-5.132-13.29-12.302-13.667z" fill="#d1d8ff"/><path d="m246.777 29.057-95.744-5.019c-7.17-.376-13.287 5.134-13.662 12.305l-8.888 169.626c-.375 7.172 5.132 13.291 12.302 13.667l95.744 5.019c7.17.376 13.287-5.134 13.662-12.305l8.888-169.626c.375-7.172-5.132-13.29-12.302-13.667z" fill="#fff"/><path d="m259.461 35.42-121.708-6.38-5.103 97.392 121.708 6.38 5.103-97.393z" fill="none"/><path d="M174.423 143.5c.093-1.775.646-3.114 1.657-4.014 1.021-.901 2.362-1.307 4.02-1.22 1.522.079 2.669.522 3.443 1.325.785.794 1.15 1.713 1.095 2.76l-2.329-.123a1.717 1.717 0 0 0-.578-1.413c-.404-.392-.975-.608-1.714-.646-.845-.045-1.564.215-2.154.777-.581.563-.903 1.457-.967 2.683-.065 1.237.166 2.192.691 2.866.537.674 1.217 1.033 2.042 1.076.729.039 1.326-.137 1.792-.525.475-.389.728-.868.758-1.439l2.298.12c-.056 1.057-.516 1.966-1.383 2.725-.866.76-2.059 1.101-3.58 1.021-1.649-.087-2.933-.657-3.851-1.712-.92-1.055-1.333-2.475-1.24-4.261zm11.224-1.892 2.376.125 1.75 5.417 2.133-5.213 2.298.12-3.375 7.691c-.883 1.883-2.142 2.781-3.78 2.695l-.777-.041.101-1.918.729.038c.581.03 1.049-.31 1.405-1.023l-2.86-7.891zm9.568 8.45.415-7.926 2.219.116-.32 6.103 2.06.108.32-6.103 2.218.116-.319 6.103 2.06.108.32-6.102 2.218.116-.415 7.925-10.776-.564zm12.995.681.415-7.926 2.06.108-.415 7.926-2.06-.108zm.206-10.003c.018-.349.159-.623.424-.82.276-.208.61-.303 1-.282.391.021.707.148.949.384.243.224.355.511.337.86-.019.359-.16.638-.425.835-.265.199-.593.287-.983.267-.392-.02-.714-.143-.966-.368-.243-.225-.355-.517-.336-.876z" fill="#4c4c4f"/><path d="M176.277 181.477a7.74 7.74 0 0 0 1.22 1.631l11.541 11.697c.565.573 1.475.62 2.097.11l12.469-10.24a7.881 7.881 0 0 0 1.615-1.68c-.49.951-.84 2.398-1.654 3.086l-12.519 10.532c-.638.572-.876 1.18-1.871.108l-11.391-12.791a8.094 8.094 0 0 1-1.507-2.453zm8.138-10.912c1.096.076 2.12.552 3.049 1.226-.898-.689-1.888-1.166-2.947-1.221-.034-.003-.068-.004-.102-.005zm10.688 1.627c.995-.573 2.065-.94 3.163-.901l-.102-.006c-1.06-.055-2.095.315-3.061.907z" clip-rule="evenodd" fill="#d1d8ff" fill-rule="evenodd"/><path d="m177.165 185.265-.004-.004c-1.492-1.672-2.352-3.888-2.226-6.277.257-4.915 4.569-8.643 9.58-8.381 1.468.077 2.762.825 3.833 1.75 1.077.929 1.997 2.096 2.724 3.137.004.007.008.009.011.01.003.002.01.005.018.005a.045.045 0 0 0 .018-.003c.003-.001.006-.003.011-.009.832-.96 1.87-2.023 3.037-2.835 1.162-.807 2.527-1.416 3.995-1.339 5.012.263 8.91 4.421 8.653 9.336-.131 2.502-1.317 4.702-3.11 6.219l-12.12 10.857a2.337 2.337 0 0 1-3.29-.172l-11.13-12.294zm25.993.795c1.643-1.386 2.202-3.197 2.322-5.475.234-4.463-2.781-7.725-7.386-7.966-2.451-.129-4.604 2.018-6.233 3.897-.347.4-1.32.348-1.622-.085-1.424-2.038-3.349-4.245-5.8-4.373-4.606-.241-7.931 2.433-8.164 6.896-.114 2.172.545 3.863 1.908 5.39l10.99 12.421c.575.635.987.612 1.625.041l12.36-10.746z" clip-rule="evenodd" fill="#5641bf" fill-rule="evenodd"/><g filter="url(#b)"><g filter="url(#c)"><path d="M117.691 3.726 21.136 8.787c-7.17.376-12.678 6.495-12.302 13.667l9.312 177.742c.376 7.171 6.493 12.681 13.663 12.305l96.555-5.062c7.17-.376 12.677-6.494 12.302-13.666l-9.313-177.742c-.376-7.172-6.493-12.681-13.662-12.305z" fill="#d1d8ff"/><path d="m117.903 7.784-96.555 5.061c-7.17.376-12.677 6.495-12.302 13.667l8.888 169.626c.375 7.171 6.492 12.681 13.662 12.305l96.555-5.062c7.17-.376 12.678-6.494 12.302-13.666l-8.887-169.626c-.376-7.172-6.493-12.681-13.663-12.305z" fill="#fff"/><path d="M130.777 12.806 9.069 19.186l5.103 97.393 121.708-6.381-5.103-97.392z" fill="none"/><path d="m59.434 134.552-.563-10.732 9.113-.477.562 10.732-2.298.12-.463-8.83-4.516.237.463 8.829-2.298.121zm11.33-.594-.415-7.926 2.06-.108.416 7.926-2.06.108zm-.84-9.97a1.04 1.04 0 0 1 .337-.86c.252-.236.574-.364.965-.384.39-.021.719.074.984.282.264.198.406.471.424.82.019.36-.093.651-.335.876s-.56.347-.95.368c-.391.02-.724-.068-1-.266-.264-.198-.406-.477-.425-.836zm5.12 9.746-.416-7.926 2.219-.117.32 6.103 2.852-.149-.32-6.103 2.219-.116.32 6.102 1.267-.066.243 4.629-2.219.116-.147-2.805-6.339.332zm12.028-6.385c-.317.409-.456.993-.416 1.754.04.762.24 1.349.6 1.765.371.404.82.593 1.349.565.496-.026.898-.248 1.205-.667.306-.419.45-.993.434-1.724l-.013-.237c-.059-.728-.262-1.269-.609-1.622a1.534 1.534 0 0 0-1.267-.505 1.672 1.672 0 0 0-1.283.671zm-1.556 4.866c-.719-.767-1.11-1.764-1.174-2.99-.065-1.226.221-2.242.857-3.049.636-.807 1.492-1.239 2.57-1.296 1.046-.054 1.884.373 2.514 1.284l.382-1.197 1.664-.087.415 7.926-1.664.087-.551-1.131c-.522.959-1.295 1.467-2.32 1.52-1.067.056-1.965-.3-2.693-1.067z" fill="#4c4c4f"/><path d="M65.11 169.876c-1.514-1.376-2.502-3.302-2.616-5.474-.233-4.463 3.31-8.276 7.917-8.517 2.45-.129 4.774 2.028 6.402 3.906.347.4.982.367 1.285-.066 1.423-2.038 3.508-4.427 5.96-4.556 4.605-.241 8.528 3.181 8.762 7.643.12 2.279-.746 4.388-2.234 5.939l-10.927 12.073a1.556 1.556 0 0 1-2.194.114l-12.354-11.062z" fill="#e95252"/><path d="m64.591 170.456-.004-.003c-1.658-1.507-2.745-3.622-2.87-6.01-.258-4.916 3.641-9.074 8.653-9.336 1.467-.077 2.832.531 3.995 1.339 1.167.811 2.204 1.875 3.037 2.835.004.006.008.008.01.009.005.002.011.003.02.002a.04.04 0 0 0 .017-.004c.003-.001.006-.004.01-.009.728-1.042 1.648-2.209 2.724-3.138 1.072-.925 2.365-1.673 3.834-1.749 5.011-.264 9.323 3.464 9.58 8.38.131 2.501-.818 4.814-2.442 6.51l-10.92 12.064a2.336 2.336 0 0 1-3.289.173l-12.355-11.063zm25.995-1.705c1.488-1.551 2.353-3.66 2.234-5.939-.234-4.462-4.157-7.884-8.763-7.642-2.451.128-4.536 2.517-5.96 4.554a.817.817 0 0 1-1.284.067c-1.628-1.878-3.951-4.035-6.402-3.906-4.606.241-8.15 4.054-7.917 8.517.114 2.172 1.102 4.097 2.617 5.474l12.354 11.062a1.556 1.556 0 0 0 2.194-.114l10.927-12.073z" clip-rule="evenodd" fill="#60050f" fill-rule="evenodd"/><path d="m67.936 172.407 9.53 8.531a1.556 1.556 0 0 0 2.193-.114l.022-.025a1.558 1.558 0 0 1-.84-.304l-10.905-8.088zm21.867-15.41a8.466 8.466 0 0 0-5.746-1.827c-2.451.128-4.536 2.517-5.96 4.554a.817.817 0 0 1-1.284.068c-1.046-1.207-2.38-2.529-3.849-3.286 1.525.969 2.896 2.477 3.943 3.696.637.742 1.752.685 2.332-.102 1.131-1.539 2.553-3.158 4.675-3.559 1.933-.364 4.068-.309 5.89.456z" clip-rule="evenodd" fill="#d93f3f" fill-rule="evenodd"/><path d="M62.633 165.523a6.831 6.831 0 0 0 1.924 2.365l12.013 9.401a1.558 1.558 0 0 0 2.042-.108l10.765-10.415c1.46-1.333 2.316-3.138 2.215-5.081-.191-3.641-3.676-6.447-7.906-6.479.123-.018.246-.03.371-.037 4.605-.241 8.529 3.181 8.763 7.643.12 2.278-.746 4.388-2.234 5.939l-10.927 12.073a1.557 1.557 0 0 1-2.193.114L65.11 169.876a7.971 7.971 0 0 1-2.478-4.353zm7.426-9.613c2.303.009 4.458 1.776 5.978 3.317.136.139.31.217.487.237-1.608-1.792-3.804-3.7-6.114-3.579a6.808 6.808 0 0 0-.351.025z" clip-rule="evenodd" fill="#d93f3f" fill-rule="evenodd"/><path d="M63.355 167.594a7.783 7.783 0 0 0 1.384 1.495l12.7 10.426a1.557 1.557 0 0 0 2.097-.11l11.33-11.488a7.808 7.808 0 0 0 1.43-1.84 8.114 8.114 0 0 1-1.71 2.674l-10.927 12.073a1.556 1.556 0 0 1-2.194.114l-12.354-11.062a8.11 8.11 0 0 1-1.756-2.282zm6.953-11.704c1.098-.039 2.167.328 3.161.901-.965-.591-2-.962-3.059-.906l-.102.005zm10.8.501c.93-.674 1.955-1.151 3.052-1.226l-.103.005c-1.06.055-2.05.533-2.949 1.221z" clip-rule="evenodd" fill="#ae2929" fill-rule="evenodd"/><path d="M73.313 158.142c1.59 1.962-1.956 1.78-3.688 4.295-1.379 2.001-2.475 5.539-4.453 3.417-1.979-2.121-1.712-5.585.595-7.738 2.306-2.152 5.952-1.94 7.546.026z" fill="#ff6d6d"/><path d="M72.41 158.008c.602 1.061-1.496.411-2.964 2.523-1.524 2.194-3.605 4.197-4.752 2.363-.91-1.553.073-3.819 2.194-5.061 2.12-1.243 4.86-.993 5.522.175z" fill="#ff968f"/><path d="M87.616 156.837c.97 1.049-.817 1.874-2.163 4.143-1.097 1.849-4.213 4.156-5.564 2.123-1.119-1.683-.813-4.657 1.562-6.302 2.375-1.645 4.984-1.24 6.165.036z" fill="#ff6d6d"/><path d="M86.704 156.885c.667.752-.673 1.135-1.885 2.48-1.211 1.346-3.305 2.492-4.015 1.279s.057-2.983 1.714-3.953c1.656-.97 3.407-.68 4.185.194z" fill="#ff968f"/><path d="M84.162 157.314c.265.453-.021 1.114-.64 1.476-.619.363-1.334.29-1.6-.163-.265-.453.022-1.114.64-1.476.619-.363 1.335-.289 1.6.163z" fill="#ffd1ce"/><path d="M68.306 158.633c.27.461-.021 1.133-.65 1.502-.63.369-1.36.294-1.629-.166-.27-.461.022-1.133.651-1.502.63-.369 1.359-.294 1.629.166z" fill="#ffbfbb"/><path d="M67.402 158.403a.39.39 0 0 1-.147.531c-.202.115-.81.565-1.36 1.33a.389.389 0 1 1-.632-.453c.613-.855 1.305-1.382 1.608-1.555a.39.39 0 0 1 .531.147z" clip-rule="evenodd" fill="#ffeae9" fill-rule="evenodd"/></g></g><clipPath id="a"><rect width="260" height="230" rx="0" ry="0" fill="#fff"/></clipPath></g></svg>