<svg width="284" height="154" viewBox="0 0 284 154" fill="none" xmlns="http://www.w3.org/2000/svg">
<g clip-path="url(#clip0_0_32)">
<g filter="url(#filter0_ddd_0_32)">
<path fill-rule="evenodd" clip-rule="evenodd" d="M224.44 35.5401C224.44 35.5185 224.44 35.4967 224.44 35.4751C224.46 31.0264 226.146 26.5254 229.583 23.0907C236.705 15.9736 248.044 16.4403 254.902 23.2943C257.074 25.4651 258.134 28.0073 258.658 30.168C260.821 30.6924 263.364 31.7508 265.537 33.9217C272.396 40.7756 272.863 52.1068 265.741 59.2239C262.172 62.7907 257.458 64.467 252.845 64.3584L235.034 64.3106C229.22 64.2947 224.509 59.5885 224.493 53.7778L224.44 35.5401Z" fill="url(#paint0_linear_0_32)"/>
<path fill-rule="evenodd" clip-rule="evenodd" d="M191.012 64.3142C186.12 64.3142 182.156 60.3515 182.156 55.4636V24.0442C182.156 20.6941 184.018 17.7787 186.765 16.2758C186.733 15.8584 186.717 15.4384 186.717 15.0166C186.717 10.1285 190.681 6.16602 195.573 6.16602H201.153C202.613 6.16602 203.991 6.51909 205.204 7.14448C206.419 6.51909 207.796 6.16602 209.257 6.16602H214.836C219.727 6.16602 223.693 10.1285 223.693 15.0166C223.693 15.4543 223.676 15.89 223.641 16.3229C226.341 17.839 228.165 20.7287 228.165 24.0442V55.4636C228.165 60.3515 224.2 64.3142 219.309 64.3142H210.674C208.486 64.3142 206.484 63.5217 204.939 62.2089C203.361 63.5483 201.336 64.3142 199.204 64.3142H191.012Z" fill="url(#paint1_linear_0_32)"/>
<path fill-rule="evenodd" clip-rule="evenodd" d="M160.125 21.3489C161.298 17.6821 164.709 15.1936 168.561 15.1936H178.214C182.071 15.1936 185.484 17.6874 186.654 21.3597L196.662 52.7792C197.519 55.4701 197.04 58.4079 195.372 60.6872C193.704 62.9671 191.048 64.3142 188.222 64.3142H179.454C177.143 64.3142 174.992 63.4185 173.388 61.9121C171.783 63.4185 169.633 64.3142 167.321 64.3142H158.509C155.681 64.3142 153.023 62.9648 151.356 60.6831C149.689 58.4008 149.212 55.4601 150.073 52.7684L160.125 21.3489Z" fill="url(#paint2_linear_0_32)"/>
<path fill-rule="evenodd" clip-rule="evenodd" d="M136.001 64.3142C131.109 64.3142 127.144 60.3515 127.144 55.4636V24.0442C127.144 19.1561 131.109 15.1936 136.001 15.1936H149.551C152.316 15.1936 155.048 15.7609 157.617 16.986C159.95 18.0988 162.015 19.6357 163.745 21.5693C165.39 23.3773 166.675 25.442 167.567 27.7209C168.488 29.9985 168.991 32.4191 168.991 34.9304C168.991 38.2394 168.191 41.4102 166.642 44.3216C165.098 47.2775 162.897 49.7254 160.151 51.5891L160.12 51.6101C158.05 53.0023 155.807 53.8811 153.492 54.3225V55.4636C153.492 60.3515 149.527 64.3142 144.636 64.3142H136.001Z" fill="url(#paint3_linear_0_32)"/>
<path fill-rule="evenodd" clip-rule="evenodd" d="M102.144 64.3142C97.2526 64.3142 93.2872 60.3515 93.2872 55.4636V24.0442C93.2872 19.1561 97.2526 15.1936 102.144 15.1936H110.779C112.998 15.1936 115.026 16.009 116.58 17.3562C118.168 15.9809 120.22 15.1936 122.381 15.1936H130.44C135.332 15.1936 139.297 19.1561 139.297 24.0442V55.4636C139.297 60.3515 135.332 64.3142 130.44 64.3142H121.805C119.618 64.3142 117.616 63.5218 116.07 62.2089C114.492 63.5483 112.468 64.3142 110.336 64.3142H102.144Z" fill="url(#paint4_linear_0_32)"/>
<path fill-rule="evenodd" clip-rule="evenodd" d="M72.002 64.3142C67.1108 64.3142 63.1454 60.3515 63.1454 55.4636V24.0442C63.1454 19.1561 67.1108 15.1936 72.002 15.1936H96.0475C100.939 15.1936 104.904 19.1561 104.904 24.0442V31.4344C104.904 32.6916 104.642 33.8876 104.169 34.9706C106.411 38.1374 107.384 41.8564 107.384 45.6396C107.384 48.8315 106.754 52.0948 105.125 55.1108C105.113 55.1332 105.101 55.155 105.089 55.1768C103.387 58.2639 100.865 60.5928 97.8395 62.1399C94.6907 63.7654 91.2579 64.3142 87.988 64.3142H72.002Z" fill="url(#paint5_linear_0_32)"/>
<path fill-rule="evenodd" clip-rule="evenodd" d="M41.9602 62.4591C41.9267 62.4438 41.8932 62.4284 41.8599 62.4125C38.9444 61.0442 36.3401 59.1879 34.1275 56.839C34.0867 56.7953 34.0463 56.7517 34.0064 56.7074C31.9365 54.4193 30.3011 51.8296 29.1389 48.9707C29.1181 48.9196 29.0978 48.8683 29.078 48.8168C27.9534 45.8949 27.3806 42.8419 27.3806 39.7097C27.3806 36.4602 28.0056 33.2967 29.2727 30.2954C30.4897 27.4124 32.1964 24.8189 34.365 22.5614L34.3675 22.5588C36.6329 20.2026 39.2951 18.36 42.2838 17.0476L42.3285 17.0282C45.5056 15.6539 48.8698 15.0166 52.3121 15.0166C55.8405 15.0166 59.2987 15.6948 62.5355 17.2043C65.529 18.5716 68.1795 20.4827 70.396 22.9331C72.4903 25.2486 74.1199 27.8819 75.25 30.7911C76.4202 33.697 77.0219 36.7479 77.0219 39.8867C77.0219 43.1045 76.3978 46.2331 75.1525 49.2024C73.9528 52.1339 72.2275 54.7567 70.0346 57.0378C67.8051 59.3579 65.1866 61.1758 62.2651 62.5034C62.2308 62.5187 62.1966 62.534 62.1629 62.5488C58.974 63.949 55.5878 64.5797 52.135 64.5797C48.6281 64.5797 45.1879 63.9254 41.9602 62.4591Z" fill="url(#paint6_linear_0_32)"/>
<path fill-rule="evenodd" clip-rule="evenodd" d="M248.767 68.6379C248.946 68.1883 249.381 67.8927 249.865 67.8927H260.4C261.051 67.8927 261.58 68.4214 261.58 69.0728V115.438C261.58 116.09 261.051 116.618 260.4 116.618H251.248C250.719 116.618 250.271 116.271 250.121 115.792C250.086 115.681 250.067 115.561 250.067 115.438V90.9514L243.334 108.248C243.157 108.702 242.72 109.001 242.233 109.001H237.708C237.221 109.001 236.784 108.702 236.607 108.248L229.874 90.9514V115.438C229.874 115.561 229.855 115.681 229.82 115.792C229.669 116.271 229.222 116.618 228.693 116.618H219.541C218.889 116.618 218.361 116.09 218.361 115.438V69.0728C218.361 68.4214 218.889 67.8927 219.541 67.8927H230.133C230.617 67.8927 231.054 68.1895 231.231 68.6409L238.875 88.0355C239.045 88.468 239.407 88.7128 239.795 88.7701C239.911 88.7872 240.029 88.7878 240.145 88.7712C240.535 88.7158 240.9 88.4715 241.072 88.0378L248.767 68.6379ZM239.999 63.7371C241.941 60.1485 245.713 57.8621 249.865 57.8621H260.4C266.595 57.8621 271.618 62.8815 271.618 69.0728V115.438C271.618 121.629 266.595 126.649 260.4 126.649H251.248C246.309 126.649 242.117 123.46 240.618 119.031H239.323C237.824 123.46 233.631 126.649 228.693 126.649H219.541C218.186 126.649 216.886 126.409 215.684 125.968C214.48 126.409 213.181 126.649 211.826 126.649H187.622C186.728 131.947 182.115 135.982 176.56 135.982H168.884C163.329 135.982 158.716 131.947 157.822 126.649H138.241C132.045 126.649 127.022 121.629 127.022 115.438V110.073C125.354 110.758 123.614 111.222 121.824 111.471V115.438C121.824 121.629 116.801 126.649 110.605 126.649H101.454C100.098 126.649 98.7989 126.409 97.5956 125.968C96.3929 126.409 95.0933 126.649 93.7377 126.649H66.2234C63.0114 126.649 60.1141 125.299 58.0694 123.137C56.6996 123.9 55.2696 124.56 53.784 125.117L53.7061 125.147L53.6276 125.174C50.1912 126.399 46.6326 127.061 42.9955 127.061C38.292 127.061 33.7709 125.97 29.622 123.705L29.5337 123.657L29.4465 123.607C25.7473 121.49 22.557 118.719 19.9 115.373L19.8394 115.297L19.7802 115.22C17.259 111.915 15.3218 108.258 13.9603 104.302L13.9527 104.28L13.9452 104.257C12.5792 100.227 11.8795 96.0765 11.8795 91.8436C11.8795 87.7876 12.5271 83.8131 13.8102 79.9608L13.8221 79.9248L13.8342 79.8894C15.1792 75.9497 17.1406 72.3257 19.7179 69.0752C22.4359 65.647 25.7688 62.8904 29.6474 60.866C33.9098 58.615 38.5515 57.5878 43.3498 57.5878C48.5665 57.5878 53.5703 58.7732 58.0647 61.3787C60.11 59.2139 63.009 57.8621 66.2234 57.8621H93.2063C94.6623 57.8621 96.054 58.1395 97.3299 58.6439C98.6064 58.1395 99.9975 57.8621 101.454 57.8621H118.34C122.033 57.8621 125.607 58.7484 128.88 60.5639C129.31 60.8028 129.731 61.0536 130.142 61.3156C132.184 59.1873 135.058 57.8621 138.241 57.8621H147.392C150.066 57.8621 152.521 58.7968 154.448 60.3568C156.375 58.7968 158.83 57.8621 161.504 57.8621H170.656C173.225 57.8621 175.592 58.7254 177.483 60.1768C179.375 58.7254 181.742 57.8621 184.311 57.8621H211.294C212.75 57.8621 214.141 58.1395 215.418 58.6439C216.694 58.1395 218.085 57.8621 219.541 57.8621H230.133C234.285 57.8621 238.057 60.1497 239.999 63.7371ZM184.311 67.8927C183.659 67.8927 183.13 68.4214 183.13 69.0728V115.438C183.13 116.09 183.659 116.618 184.311 116.618H211.826C212.477 116.618 213.006 116.09 213.006 115.438V106.131C213.006 105.48 212.477 104.951 211.826 104.951H195.825C195.172 104.951 194.644 104.423 194.644 103.771V98.4455C194.644 97.7935 195.172 97.2654 195.825 97.2654H208.696C209.348 97.2654 209.877 96.7367 209.877 96.0853V87.6024C209.877 86.9504 209.348 86.4223 208.696 86.4223H195.825C195.172 86.4223 194.644 85.8942 194.644 85.2422V80.7396C194.644 80.0876 195.172 79.5596 195.825 79.5596H211.294C211.946 79.5596 212.475 79.0315 212.475 78.3795V69.0728C212.475 68.4214 211.946 67.8927 211.294 67.8927H184.311ZM173.017 104.951C172.365 104.951 171.837 104.423 171.837 103.771V69.0728C171.837 68.4214 171.308 67.8927 170.656 67.8927H161.504C160.851 67.8927 160.323 68.4214 160.323 69.0728V103.771C160.323 104.423 159.795 104.951 159.142 104.951H149.754C149.102 104.951 148.573 104.423 148.573 103.771V69.0728C148.573 68.4214 148.045 67.8927 147.392 67.8927H138.241C137.875 67.8927 137.547 68.0597 137.331 68.3211C137.161 68.5253 137.06 68.7872 137.06 69.0728V115.438C137.06 116.09 137.588 116.618 138.241 116.618H166.523C167.175 116.618 167.703 117.146 167.703 117.798V124.771C167.703 125.423 168.232 125.951 168.884 125.951H176.56C177.212 125.951 177.741 125.423 177.741 124.771V106.131C177.741 105.48 177.212 104.951 176.56 104.951H173.017ZM94.9186 106.131C94.9186 105.48 94.3901 104.951 93.7377 104.951H77.7369C77.085 104.951 76.556 104.423 76.556 103.771V98.4455C76.556 97.7935 77.085 97.2654 77.7369 97.2654H90.6084C91.2608 97.2654 91.7893 96.7367 91.7893 96.0853V87.6024C91.7893 86.9504 91.2608 86.4223 90.6084 86.4223H77.7369C77.085 86.4223 76.556 85.8942 76.556 85.2422V80.7396C76.556 80.0876 77.085 79.5596 77.7369 79.5596H93.2063C93.8587 79.5596 94.3872 79.0315 94.3872 78.3795V69.0728C94.3872 68.4214 93.8587 67.8927 93.2063 67.8927H66.2234C66.094 67.8927 65.9701 67.914 65.8531 67.9523C65.3826 68.1075 65.0425 68.5506 65.0425 69.0728V115.438C65.0425 116.053 65.5136 116.558 66.1153 116.613C66.1507 116.616 66.1867 116.618 66.2234 116.618H93.7377C94.3901 116.618 94.9186 116.09 94.9186 115.438V106.131ZM59.8354 78.8309C60.2464 78.4916 60.3816 77.9169 60.1383 77.4425C58.8966 75.0251 57.1855 72.9995 55.0051 71.3645C54.6366 71.0884 54.2546 70.8234 53.8596 70.5691C50.8679 68.602 47.3647 67.6184 43.3498 67.6184C40.004 67.6184 36.9927 68.3276 34.3161 69.746C31.6788 71.1185 29.4351 72.9712 27.5851 75.3048C25.7351 77.6378 24.318 80.2458 23.334 83.1281C22.3893 85.9644 21.9169 88.8698 21.9169 91.8436C21.9169 94.9548 22.4286 98.0201 23.4521 101.04C24.4755 104.014 25.9122 106.713 27.7623 109.138C29.6517 111.517 31.8756 113.438 34.4342 114.902C37.0321 116.321 39.8859 117.03 42.9955 117.03C45.3966 117.03 47.8174 116.595 50.258 115.726C51.9655 115.086 53.5479 114.255 55.0051 113.234C55.6303 112.796 56.2326 112.323 56.8118 111.814C58.5105 110.323 59.7817 108.566 60.6254 106.543C60.8291 106.054 60.6443 105.498 60.2092 105.196L52.8653 100.096C52.2147 99.6433 51.3148 99.9536 50.9582 100.661C50.5567 101.457 50.0678 102.133 49.4904 102.687C48.5849 103.556 47.5812 104.197 46.4791 104.608C45.3769 104.974 44.2945 105.157 43.2317 105.157C41.7359 105.157 40.3779 104.814 39.1577 104.128C37.9768 103.442 36.9731 102.504 36.1465 101.314C35.3198 100.079 34.69 98.6833 34.2571 97.128C33.824 95.5726 33.6076 93.9482 33.6076 92.2554C33.6076 90.7455 33.7847 89.2362 34.139 87.7263C34.5326 86.2164 35.1033 84.8439 35.8512 83.6084C36.6385 82.3734 37.6226 81.3893 38.8034 80.6576C40.0236 79.88 41.4604 79.4911 43.1136 79.4911C44.1764 79.4911 45.2588 79.674 46.361 80.0398C47.5025 80.3602 48.5456 80.955 49.4904 81.8241C50.1133 82.3746 50.6417 83.0715 51.0751 83.9146C51.4571 84.6581 52.4361 84.9496 53.0802 84.4168L59.8354 78.8309Z" fill="url(#paint7_linear_0_32)"/>
<path d="M190.496 56.3433C190.496 57.1582 191.157 57.8184 191.972 57.8184H198.273C198.819 57.8184 199.321 57.5169 199.578 57.0343L210.158 37.0986V56.3433C210.158 57.1582 210.819 57.8184 211.634 57.8184H217.907C218.723 57.8184 219.383 57.1582 219.383 56.3433V23.1859C219.383 22.3712 218.723 21.7108 217.907 21.7108H211.735C211.191 21.7108 210.691 22.0097 210.435 22.4885L199.722 42.4426V23.1859C199.722 22.3712 199.061 21.7108 198.246 21.7108H191.972C191.157 21.7108 190.496 22.3712 190.496 23.1859V56.3433ZM199.869 19.5675C201.363 20.3252 203.062 20.7001 204.962 20.7001C206.861 20.7001 208.561 20.3253 210.054 19.5681C211.575 18.8122 212.767 17.76 213.625 16.4111C214.276 15.387 214.679 14.2537 214.836 13.0149C214.943 12.1665 214.238 11.5057 213.435 11.5057H210.217C209.387 11.5057 208.793 12.1809 208.61 12.8964C208.454 13.5074 208.157 14.0398 207.716 14.4977C207.043 15.1973 206.136 15.5578 204.962 15.5578C203.76 15.5578 202.858 15.1819 202.216 14.4567C201.801 13.9872 201.518 13.4664 201.365 12.8922C201.175 12.1809 200.581 11.5057 199.751 11.5057H196.533C195.73 11.5057 195.025 12.1665 195.132 13.0149C195.289 14.2537 195.693 15.387 196.343 16.4111C197.2 17.7588 198.377 18.8112 199.869 19.5675Z" fill="#F7AC1E" stroke="white"/>
<path d="M169.211 21.7107C168.564 21.7107 167.992 22.1321 167.801 22.75L157.542 55.9073C157.249 56.8567 157.958 57.8184 158.953 57.8184H166.194C166.862 57.8184 167.447 57.3694 167.62 56.7239L169.187 50.8649H177.104L178.712 56.7328C178.887 57.3736 179.47 57.8184 180.135 57.8184H187.34C188.334 57.8184 189.044 56.8579 188.751 55.9091L178.533 22.7516C178.342 22.1329 177.77 21.7107 177.122 21.7107H169.211ZM170.617 43.7716L173.16 32.8864L175.589 43.7716H170.617Z" fill="#F7AC1E" stroke="white"/>
<path d="M155.133 45.1019L155.134 45.1011C156.738 43.8703 157.978 42.2981 158.853 40.3895C159.757 38.4822 160.209 36.4552 160.209 34.3118C160.209 32.7763 159.937 31.2592 159.395 29.7617C158.883 28.2644 158.144 26.9177 157.178 25.7238C156.209 24.4933 155.057 23.5165 153.722 22.7966C152.378 22.0721 150.913 21.7107 149.33 21.7107H136.961C136.145 21.7107 135.485 22.3711 135.485 23.1858V56.3433C135.485 57.1582 136.145 57.8184 136.961 57.8184H143.234C144.049 57.8184 144.71 57.1582 144.71 56.3433V46.9129H149.552C151.678 46.9129 153.542 46.311 155.133 45.1019ZM150.519 36.4496L150.516 36.4557L150.514 36.4619C150.318 36.9999 150.08 37.3387 149.822 37.5241C149.541 37.7263 149.261 37.8187 148.976 37.8187H144.71V30.805H148.755C149.04 30.805 149.339 30.8984 149.655 31.1064L149.667 31.1147L149.681 31.1217C149.982 31.2788 150.254 31.5945 150.475 32.124L150.479 32.1332L150.483 32.1421C150.719 32.6161 150.851 33.3299 150.851 34.3118C150.851 35.2249 150.734 35.9323 150.519 36.4496Z" fill="#F7AC1E" stroke="white"/>
<path d="M101.628 56.3433C101.628 57.1582 102.289 57.8184 103.104 57.8184H109.405C109.952 57.8184 110.453 57.5169 110.709 57.0343L121.29 37.0985V56.3433C121.29 57.1582 121.951 57.8184 122.766 57.8184H129.039C129.854 57.8184 130.515 57.1582 130.515 56.3433V23.1858C130.515 22.3711 129.854 21.7107 129.039 21.7107H122.867C122.323 21.7107 121.824 22.0095 121.566 22.4884L110.854 42.4425V23.1858C110.854 22.3711 110.193 21.7107 109.378 21.7107H103.104C102.289 21.7107 101.628 22.3711 101.628 23.1858V56.3433Z" fill="#F7AC1E" stroke="white"/>
<path d="M71.4865 57.5234V57.8184H71.7817H87.7678C90.136 57.8184 92.1246 57.3612 93.717 56.4277C95.3325 55.4978 96.5541 54.1862 97.3766 52.5001L97.3777 52.4979C98.1979 50.7822 98.6023 48.7524 98.6023 46.4178C98.6023 43.0588 97.6547 40.3764 95.7281 38.4077C93.7956 36.4322 90.9768 35.4676 87.325 35.4676H80.7121V30.6549H94.6464C95.4612 30.6549 96.1225 29.9945 96.1225 29.1798V23.1858C96.1225 22.3711 95.4612 21.7107 94.6464 21.7107H72.9626C72.1472 21.7107 71.4865 22.3711 71.4865 23.1858V57.5234ZM88.0447 48.4748L88.0406 48.4775L88.037 48.4803C87.6922 48.7308 87.1856 48.8742 86.4836 48.8742H80.7121V43.5113H86.4393C87.2092 43.5113 87.7684 43.6412 88.1469 43.8691C88.5318 44.1011 88.7786 44.4115 88.9032 44.8059L88.9068 44.8174L88.9115 44.8285C89.0733 45.2243 89.1553 45.653 89.1553 46.1177C89.1553 46.576 89.0609 47.019 88.8701 47.4491L88.8672 47.4564L88.8642 47.4638C88.7101 47.8699 88.4409 48.2062 88.0447 48.4748Z" fill="#F7AC1E" stroke="white"/>
<path d="M191.972 52.2479C191.32 52.2479 190.791 51.7196 190.791 51.0678V22.0084C190.791 21.3567 191.32 20.8284 191.972 20.8284H198.246C198.898 20.8284 199.426 21.3567 199.426 22.0084V39.9456L210.684 21.3965C210.898 21.0438 211.281 20.8284 211.693 20.8284H217.907C218.56 20.8284 219.088 21.3567 219.088 22.0084V51.0678C219.088 51.7196 218.56 52.2479 217.907 52.2479H211.634C210.982 52.2479 210.453 51.7196 210.453 51.0678V33.1307L199.328 51.6746C199.114 52.0303 198.73 52.2479 198.315 52.2479H191.972ZM204.962 19.4123C203.102 19.4123 201.449 19.0878 200.002 18.4387C198.556 17.7897 197.419 16.8899 196.592 15.7393C195.992 14.9037 195.61 13.9826 195.446 12.976C195.341 12.3328 195.881 11.8008 196.533 11.8008H199.751C200.404 11.8008 200.907 12.3443 201.12 12.9602C201.293 13.459 201.585 13.9134 201.995 14.3232C202.703 15.0312 203.692 15.3853 204.962 15.3853C206.202 15.3853 207.191 15.046 207.929 14.3674C208.37 13.9622 208.679 13.4937 208.856 12.962C209.063 12.3438 209.565 11.8008 210.217 11.8008H213.435C214.087 11.8008 214.628 12.3328 214.523 12.976C214.358 13.9826 213.976 14.9037 213.376 15.7393C212.549 16.8899 211.398 17.7897 209.921 18.4387C208.475 19.0878 206.822 19.4123 204.962 19.4123Z" fill="#333333"/>
<path d="M191.972 52.2479C191.32 52.2479 190.791 51.7196 190.791 51.0678V22.0084C190.791 21.3567 191.32 20.8284 191.972 20.8284H198.246C198.898 20.8284 199.426 21.3567 199.426 22.0084V39.9456L210.684 21.3965C210.898 21.0438 211.281 20.8284 211.693 20.8284H217.907C218.56 20.8284 219.088 21.3567 219.088 22.0084V51.0678C219.088 51.7196 218.56 52.2479 217.907 52.2479H211.634C210.982 52.2479 210.453 51.7196 210.453 51.0678V33.1307L199.328 51.6746C199.114 52.0303 198.73 52.2479 198.315 52.2479H191.972ZM204.962 19.4123C203.102 19.4123 201.449 19.0878 200.002 18.4387C198.556 17.7897 197.419 16.8899 196.592 15.7393C195.992 14.9037 195.61 13.9826 195.446 12.976C195.341 12.3328 195.881 11.8008 196.533 11.8008H199.751C200.404 11.8008 200.907 12.3443 201.12 12.9602C201.293 13.459 201.585 13.9134 201.995 14.3232C202.703 15.0312 203.692 15.3853 204.962 15.3853C206.202 15.3853 207.191 15.046 207.929 14.3674C208.37 13.9622 208.679 13.4937 208.856 12.962C209.063 12.3438 209.565 11.8008 210.217 11.8008H213.435C214.087 11.8008 214.628 12.3328 214.523 12.976C214.358 13.9826 213.976 14.9037 213.376 15.7393C212.549 16.8899 211.398 17.7897 209.921 18.4387C208.475 19.0878 206.822 19.4123 204.962 19.4123Z" fill="#FDF36D"/>
<path d="M168.078 21.6489C168.234 21.16 168.689 20.8282 169.203 20.8282H177.13C177.645 20.8282 178.1 21.1607 178.256 21.6504L187.512 50.7098C187.755 51.4709 187.186 52.2478 186.387 52.2478H180.104C179.587 52.2478 179.13 51.9108 178.977 51.4165L177.33 46.0966H168.961L167.354 51.409C167.203 51.9071 166.744 52.2478 166.224 52.2478H159.906C159.106 52.2478 158.537 51.4698 158.781 50.7083L168.078 21.6489ZM175.957 40.3438L173.167 29.2805L170.245 40.3438H175.957Z" fill="#333333"/>
<path d="M168.078 21.6489C168.234 21.16 168.689 20.8282 169.203 20.8282H177.13C177.645 20.8282 178.1 21.1607 178.256 21.6504L187.512 50.7098C187.755 51.4709 187.186 52.2478 186.387 52.2478H180.104C179.587 52.2478 179.13 51.9108 178.977 51.4165L177.33 46.0966H168.961L167.354 51.409C167.203 51.9071 166.744 52.2478 166.224 52.2478H159.906C159.106 52.2478 158.537 51.4698 158.781 50.7083L168.078 21.6489ZM175.957 40.3438L173.167 29.2805L170.245 40.3438H175.957Z" fill="#FDF36D"/>
<path d="M136.961 52.2478C136.309 52.2478 135.78 51.7195 135.78 51.0677V22.0083C135.78 21.3566 136.309 20.8282 136.961 20.8282H149.33C150.865 20.8282 152.282 21.138 153.581 21.7576C154.88 22.3771 156.002 23.2179 156.947 24.28C157.892 25.3125 158.615 26.4779 159.117 27.7759C159.648 29.074 159.914 30.3869 159.914 31.7145C159.914 33.5731 159.471 35.3284 158.585 36.9805C157.729 38.6327 156.519 39.9897 154.954 41.0518C153.419 42.0844 151.618 42.6007 149.552 42.6007H144.415V51.0677C144.415 51.7195 143.886 52.2478 143.234 52.2478H136.961ZM144.415 35.0777H148.976C149.33 35.0777 149.67 34.9744 149.994 34.7679C150.319 34.5614 150.585 34.2074 150.792 33.7058C151.028 33.2043 151.146 32.5405 151.146 31.7145C151.146 30.8294 151.013 30.1509 150.747 29.6788C150.511 29.1773 150.201 28.838 149.817 28.661C149.463 28.4545 149.109 28.3512 148.755 28.3512H144.415V35.0777Z" fill="#333333"/>
<path d="M136.961 52.2478C136.309 52.2478 135.78 51.7195 135.78 51.0677V22.0083C135.78 21.3566 136.309 20.8282 136.961 20.8282H149.33C150.865 20.8282 152.282 21.138 153.581 21.7576C154.88 22.3771 156.002 23.2179 156.947 24.28C157.892 25.3125 158.615 26.4779 159.117 27.7759C159.648 29.074 159.914 30.3869 159.914 31.7145C159.914 33.5731 159.471 35.3284 158.585 36.9805C157.729 38.6327 156.519 39.9897 154.954 41.0518C153.419 42.0844 151.618 42.6007 149.552 42.6007H144.415V51.0677C144.415 51.7195 143.886 52.2478 143.234 52.2478H136.961ZM144.415 35.0777H148.976C149.33 35.0777 149.67 34.9744 149.994 34.7679C150.319 34.5614 150.585 34.2074 150.792 33.7058C151.028 33.2043 151.146 32.5405 151.146 31.7145C151.146 30.8294 151.013 30.1509 150.747 29.6788C150.511 29.1773 150.201 28.838 149.817 28.661C149.463 28.4545 149.109 28.3512 148.755 28.3512H144.415V35.0777Z" fill="#FDF36D"/>
<path d="M103.104 52.2478C102.452 52.2478 101.924 51.7195 101.924 51.0677V22.0083C101.924 21.3566 102.452 20.8282 103.104 20.8282H109.378C110.03 20.8282 110.559 21.3566 110.559 22.0083V39.9455L121.816 21.3964C122.03 21.0437 122.413 20.8282 122.826 20.8282H129.039C129.691 20.8282 130.22 21.3566 130.22 22.0083V51.0677C130.22 51.7195 129.691 52.2478 129.039 52.2478H122.766C122.114 52.2478 121.585 51.7195 121.585 51.0677V33.1305L110.459 51.6745C110.246 52.0302 109.861 52.2478 109.447 52.2478H103.104Z" fill="#333333"/>
<path d="M103.104 52.2478C102.452 52.2478 101.924 51.7195 101.924 51.0677V22.0083C101.924 21.3566 102.452 20.8282 103.104 20.8282H109.378C110.03 20.8282 110.559 21.3566 110.559 22.0083V39.9455L121.816 21.3964C122.03 21.0437 122.413 20.8282 122.826 20.8282H129.039C129.691 20.8282 130.22 21.3566 130.22 22.0083V51.0677C130.22 51.7195 129.691 52.2478 129.039 52.2478H122.766C122.114 52.2478 121.585 51.7195 121.585 51.0677V33.1305L110.459 51.6745C110.246 52.0302 109.861 52.2478 109.447 52.2478H103.104Z" fill="#FDF36D"/>
<path d="M71.7817 52.2478V22.0083C71.7817 21.3566 72.3102 20.8282 72.9626 20.8282H94.6464C95.2982 20.8282 95.8273 21.3566 95.8273 22.0083V27.0384C95.8273 27.6902 95.2982 28.2185 94.6464 28.2185H80.4169V32.9978H87.325C90.9266 32.9978 93.6574 33.8386 95.5173 35.5202C97.3772 37.2018 98.3071 39.503 98.3071 42.4237C98.3071 44.4593 97.9086 46.2146 97.1115 47.6897C96.3144 49.1353 95.1335 50.2564 93.5689 51.053C92.0337 51.8495 90.1 52.2478 87.7678 52.2478H71.7817ZM80.4169 44.8576H86.4836C87.2217 44.8576 87.7973 44.7248 88.2106 44.4593C88.6535 44.1938 88.9634 43.8545 89.1406 43.4415C89.3472 43.0284 89.4506 42.6007 89.4506 42.1581C89.4506 41.7156 89.362 41.3026 89.1849 40.9191C89.0372 40.506 88.742 40.1815 88.2992 39.9455C87.8564 39.7095 87.2364 39.5915 86.4393 39.5915H80.4169V44.8576Z" fill="#333333"/>
<path d="M71.7817 52.2478V22.0083C71.7817 21.3566 72.3102 20.8282 72.9626 20.8282H94.6464C95.2982 20.8282 95.8273 21.3566 95.8273 22.0083V27.0384C95.8273 27.6902 95.2982 28.2185 94.6464 28.2185H80.4169V32.9978H87.325C90.9266 32.9978 93.6574 33.8386 95.5173 35.5202C97.3772 37.2018 98.3071 39.503 98.3071 42.4237C98.3071 44.4593 97.9086 46.2146 97.1115 47.6897C96.3144 49.1353 95.1335 50.2564 93.5689 51.053C92.0337 51.8495 90.1 52.2478 87.7678 52.2478H71.7817ZM80.4169 44.8576H86.4836C87.2217 44.8576 87.7973 44.7248 88.2106 44.4593C88.6535 44.1938 88.9634 43.8545 89.1406 43.4415C89.3472 43.0284 89.4506 42.6007 89.4506 42.1581C89.4506 41.7156 89.362 41.3026 89.1849 40.9191C89.0372 40.506 88.742 40.1815 88.2992 39.9455C87.8564 39.7095 87.2364 39.5915 86.4393 39.5915H80.4169V44.8576Z" fill="#FDF36D"/>
<path d="M51.9141 52.5134C49.5229 52.5134 47.353 52.0709 45.4046 51.1858C43.4561 50.2713 41.7734 49.0617 40.3563 47.5571C38.9688 46.023 37.8913 44.3119 37.1237 42.4238C36.3857 40.5062 36.0166 38.5295 36.0166 36.4939C36.0166 34.3993 36.4152 32.4079 37.2123 30.5198C38.0094 28.6316 39.1164 26.95 40.5335 25.4749C41.98 23.9703 43.6775 22.7903 45.626 21.9347C47.604 21.0791 49.759 20.6514 52.0913 20.6514C54.4825 20.6514 56.6524 21.1086 58.6008 22.0232C60.5493 22.9083 62.2173 24.1178 63.6048 25.6519C64.9923 27.186 66.0551 28.9119 66.7931 30.8295C67.5607 32.7177 67.9445 34.6648 67.9445 36.6709C67.9445 38.736 67.5459 40.7127 66.7489 42.6008C65.9813 44.4889 64.8742 46.1853 63.4277 47.6899C62.0106 49.165 60.3279 50.345 58.3794 51.2301C56.431 52.0857 54.2759 52.5134 51.9141 52.5134ZM44.7846 36.5824C44.7846 37.6445 44.9322 38.677 45.2274 39.6801C45.5227 40.6537 45.9655 41.5387 46.5559 42.3353C47.1464 43.1023 47.8844 43.7219 48.7701 44.1939C49.6852 44.6364 50.7628 44.8577 52.0027 44.8577C53.2426 44.8577 54.3202 44.6217 55.2353 44.1496C56.1505 43.6776 56.8886 43.0433 57.4495 42.2468C58.0399 41.4207 58.468 40.5209 58.7337 39.5473C59.0289 38.5443 59.1765 37.5265 59.1765 36.4939C59.1765 35.4318 59.0289 34.414 58.7337 33.4404C58.4385 32.4669 57.9956 31.5966 57.4052 30.8295C56.8148 30.033 56.062 29.4134 55.1468 28.9709C54.2316 28.5284 53.1688 28.3071 51.9584 28.3071C50.7185 28.3071 49.641 28.5431 48.7258 29.0152C47.8401 29.4872 47.1021 30.1215 46.5116 30.918C45.9212 31.6851 45.4784 32.5701 45.1832 33.5732C44.9175 34.5468 44.7846 35.5498 44.7846 36.5824Z" fill="#333333"/>
<path d="M233.296 35.5145C233.306 33.2637 234.154 31.0399 235.845 29.349C239.322 25.8746 245.051 25.9658 248.64 29.5526C250.55 31.4614 250.497 34.9475 250.16 37.6604C250.089 38.2375 250.584 38.7321 251.161 38.6606C253.876 38.3242 257.364 38.2711 259.274 40.18C262.864 43.7669 262.954 49.4912 259.478 52.9657C257.703 54.7396 255.341 55.5839 252.977 55.5084L235.059 55.4601C234.116 55.4571 233.352 54.6941 233.349 53.7519L233.296 35.5145Z" fill="#E95252"/>
<path d="M233.296 35.5146C233.306 33.2637 234.154 31.04 235.845 29.3491C239.322 25.8747 245.051 25.9658 248.64 29.5526C250.55 31.4615 250.497 34.9475 250.16 37.6604C250.089 38.2376 250.584 38.7322 251.161 38.6606C253.876 38.3243 257.364 38.2713 259.274 40.1801C262.864 43.767 262.954 49.4913 259.478 52.9657C257.703 54.7396 255.341 55.5839 252.977 55.5084L235.059 55.46C234.116 55.457 233.352 54.6941 233.349 53.7518L233.296 35.5146Z" fill="#E95252"/>
<path fill-rule="evenodd" clip-rule="evenodd" d="M232.44 35.517V35.5107C232.45 33.0472 233.378 30.6031 235.239 28.7435C239.069 24.9166 245.34 25.0441 249.246 28.9471C250.389 30.09 250.897 31.6533 251.093 33.1975C251.289 34.749 251.182 36.3793 251.011 37.7657C251.01 37.7737 251.011 37.7779 251.012 37.7812C251.013 37.7857 251.017 37.792 251.023 37.7982C251.029 37.8044 251.036 37.8078 251.04 37.8095C251.044 37.8107 251.048 37.8117 251.055 37.8107C252.443 37.6388 254.074 37.5325 255.627 37.7288C257.172 37.9241 258.736 38.4316 259.88 39.5745C263.786 43.4775 263.913 49.7443 260.084 53.5712C258.135 55.519 255.544 56.4442 252.962 56.3645L235.056 56.3162C233.642 56.3126 232.496 55.1679 232.492 53.7542L232.44 35.517ZM252.977 55.5084C255.341 55.5839 257.703 54.7396 259.478 52.9657C262.954 49.4912 262.864 43.7669 259.274 40.1801C257.364 38.2712 253.876 38.3242 251.161 38.6606C250.584 38.7321 250.089 38.2376 250.16 37.6604C250.497 34.9475 250.55 31.4614 248.64 29.5526C245.051 25.9658 239.322 25.8746 235.845 29.349C234.154 31.0399 233.306 33.2637 233.296 35.5145L233.349 53.7519C233.352 54.6941 234.116 55.4571 235.059 55.46L252.977 55.5084Z" fill="#D93F3F"/>
<path fill-rule="evenodd" clip-rule="evenodd" d="M233.309 39.686L233.349 53.7519C233.352 54.6942 234.116 55.4571 235.059 55.46H235.095C234.892 55.2069 234.758 54.8942 234.725 54.5496L233.309 39.686ZM262.011 46.222C261.882 44.0394 260.968 41.872 259.274 40.1801C257.364 38.2713 253.876 38.3243 251.161 38.6606C250.584 38.7321 250.089 38.2376 250.16 37.6604C250.376 35.9173 250.476 33.8551 250.012 32.097C250.342 34.0566 250.12 36.2864 249.894 38.0388C249.756 39.1056 250.624 39.9748 251.695 39.869C253.786 39.6625 256.157 39.6325 258.047 41.0732C259.768 42.3847 261.296 44.1702 262.011 46.222Z" fill="#D93F3F"/>
<path fill-rule="evenodd" clip-rule="evenodd" d="M235.032 30.2872C234.612 31.3127 234.442 32.4442 234.514 33.5995L235.675 50.3345C235.734 51.1872 236.413 51.8657 237.266 51.9247L253.709 53.0609C255.874 53.2734 257.981 52.6451 259.495 51.1322C262.332 48.2976 262.06 43.3842 258.971 39.9037C259.076 39.9909 259.177 40.0829 259.274 40.1801C262.864 43.7669 262.954 49.4912 259.478 52.9657C257.703 54.7397 255.341 55.584 252.977 55.5085L235.059 55.4595C234.116 55.4572 233.352 54.6942 233.349 53.7519L233.296 35.5145C233.305 33.6592 233.881 31.8224 235.032 30.2872ZM248.359 29.2839C250.049 31.1729 250.19 34.2346 250.05 36.6104C250.038 36.8236 250.101 37.0226 250.215 37.1829C250.496 34.55 250.44 31.3512 248.639 29.5526C248.548 29.4608 248.455 29.3712 248.359 29.2839Z" fill="#D93F3F"/>
<path d="M248.931 33.5858C248.498 36.328 246.035 33.2964 242.704 33.7306C240.052 34.0762 236.352 35.7833 236.629 32.6057C236.907 29.4282 239.936 27.0968 243.395 27.3985C246.854 27.7001 249.366 30.8361 248.931 33.5858Z" fill="#FF6D6D"/>
<path d="M248.377 32.7486C247.952 34.0217 246.939 31.8285 244.13 32.1828C241.215 32.5505 238.044 32.3242 238.699 30.0368C239.299 28.1517 241.875 27.2874 244.453 28.1064C247.031 28.9254 248.844 31.3482 248.377 32.7486Z" fill="#FF968F"/>
<path d="M260.531 44.3166C260.389 45.8807 258.398 45.0276 255.552 45.5964C253.232 46.0599 249.05 45.2108 249.718 42.6102C250.27 40.4578 252.927 38.5206 256.021 39.2507C259.115 39.9808 260.705 42.4118 260.531 44.3166Z" fill="#FF6D6D"/>
<path d="M259.82 43.6057C259.698 44.7048 258.397 43.8901 256.405 43.8901C254.413 43.8901 251.934 43.0214 252.403 41.549C252.871 40.0766 254.883 39.4016 256.897 40.0413C258.91 40.681 259.962 42.3259 259.82 43.6057Z" fill="#FF968F"/>
<path d="M249.772 115.438C249.772 116.252 250.433 116.913 251.248 116.913H260.4C261.214 116.913 261.876 116.252 261.876 115.438V69.0728C261.876 68.258 261.214 67.5977 260.4 67.5977H249.865C249.26 67.5977 248.716 67.9671 248.493 68.5294L240.797 87.9293C240.501 88.6751 239.444 88.6739 239.15 87.9275L231.506 68.5323C231.283 67.9683 230.739 67.5977 230.133 67.5977H219.541C218.726 67.5977 218.065 68.258 218.065 69.0728V115.438C218.065 116.252 218.726 116.913 219.541 116.913H228.693C229.508 116.913 230.169 116.252 230.169 115.438V92.5233L236.332 108.355C236.553 108.922 237.099 109.295 237.708 109.295H242.233C242.842 109.295 243.388 108.922 243.609 108.355L249.772 92.5233V115.438Z" fill="#BC9EFF" stroke="white"/>
<path d="M213.302 106.131C213.302 105.316 212.64 104.656 211.826 104.656H195.825C195.335 104.656 194.939 104.26 194.939 103.771V98.4455C194.939 97.9564 195.335 97.5604 195.825 97.5604H208.696C209.511 97.5604 210.172 96.8996 210.172 96.0853V87.6024C210.172 86.7875 209.511 86.1273 208.696 86.1273H195.825C195.335 86.1273 194.939 85.7308 194.939 85.2422V80.7396C194.939 80.2505 195.335 79.8546 195.825 79.8546H211.294C212.109 79.8546 212.77 79.1937 212.77 78.3795V69.0728C212.77 68.258 212.109 67.5977 211.294 67.5977H184.311C183.496 67.5977 182.835 68.258 182.835 69.0728V115.438C182.835 116.253 183.496 116.913 184.311 116.913H211.826C212.64 116.913 213.302 116.253 213.302 115.438V106.131Z" fill="#BC9EFF" stroke="white"/>
<path d="M167.408 124.771C167.408 125.586 168.069 126.246 168.884 126.246H176.56C177.375 126.246 178.036 125.586 178.036 124.771V106.131C178.036 105.316 177.375 104.656 176.56 104.656H173.017C172.529 104.656 172.132 104.26 172.132 103.771V69.0728C172.132 68.258 171.471 67.5977 170.656 67.5977H161.504C160.688 67.5977 160.028 68.258 160.028 69.0728V103.771C160.028 104.26 159.631 104.656 159.142 104.656H149.754C149.265 104.656 148.869 104.26 148.869 103.771V69.0728C148.869 68.258 148.208 67.5977 147.392 67.5977H138.241C137.425 67.5977 136.765 68.258 136.765 69.0728V115.438C136.765 116.252 137.425 116.913 138.241 116.913H166.523C167.011 116.913 167.408 117.309 167.408 117.798V124.771Z" fill="#BC9EFF" stroke="white"/>
<path d="M126.021 99.4875L126.022 99.4869C128.147 97.8088 129.79 95.6658 130.949 93.0632C132.148 90.4623 132.747 87.6985 132.747 84.7749C132.747 82.6826 132.387 80.6146 131.668 78.5718C130.989 76.5297 130.009 74.6929 128.729 73.065C127.446 71.3881 125.92 70.057 124.152 69.0764C122.374 68.0904 120.435 67.5977 118.34 67.5977H101.454C100.639 67.5977 99.9774 68.258 99.9774 69.0728V115.438C99.9774 116.253 100.639 116.913 101.454 116.913H110.605C111.421 116.913 112.081 116.252 112.081 115.438V102.837C112.081 102.349 112.478 101.952 112.967 101.952H118.635C121.453 101.952 123.918 101.132 126.021 99.4875ZM120.015 87.7528L120.013 87.7587L120.01 87.7646C119.745 88.5146 119.417 89.0019 119.05 89.2734C118.661 89.5613 118.269 89.6958 117.868 89.6958H112.967C112.478 89.6958 112.081 89.2993 112.081 88.8108V80.7396C112.081 80.2505 112.478 79.8546 112.967 79.8546H117.572C117.975 79.8546 118.39 79.9897 118.824 80.2841L118.837 80.2924L118.85 80.2995C119.279 80.5296 119.656 80.9875 119.956 81.7291L119.96 81.738L119.964 81.7468C120.29 82.4201 120.466 83.4202 120.466 84.7749C120.466 86.0364 120.31 87.0235 120.015 87.7528Z" fill="#BC9EFF" stroke="white"/>
<path d="M95.2138 106.131C95.2138 105.316 94.5531 104.656 93.7377 104.656H77.7369C77.248 104.656 76.8512 104.26 76.8512 103.771V98.4455C76.8512 97.9564 77.248 97.5604 77.7369 97.5604H90.6084C91.4238 97.5604 92.0845 96.8996 92.0845 96.0853V87.6024C92.0845 86.7875 91.4238 86.1273 90.6084 86.1273H77.7369C77.248 86.1273 76.8512 85.7308 76.8512 85.2422V80.7396C76.8512 80.2505 77.248 79.8546 77.7369 79.8546H93.2063C94.0217 79.8546 94.6824 79.1937 94.6824 78.3795V69.0728C94.6824 68.258 94.0217 67.5977 93.2063 67.5977H66.2234C65.4086 67.5977 64.7473 68.258 64.7473 69.0728V115.438C64.7473 116.253 65.4086 116.913 66.2234 116.913H93.7377C94.5531 116.913 95.2138 116.253 95.2138 115.438V106.131Z" fill="#BC9EFF" stroke="white"/>
<path d="M23.0545 83.0331L23.0539 83.0349C22.0992 85.9013 21.6217 88.8379 21.6217 91.8436C21.6217 94.9879 22.1389 98.085 23.1724 101.134L23.1729 101.136C24.2062 104.138 25.6577 106.866 27.5275 109.316L27.531 109.321C29.443 111.728 31.6954 113.675 34.2875 115.158L34.2927 115.161C36.9362 116.605 39.839 117.325 42.9955 117.325C45.433 117.325 47.8872 116.884 50.3571 116.004L50.3619 116.002C52.8352 115.075 55.0505 113.752 57.0066 112.036C58.7384 110.516 60.0368 108.722 60.8982 106.656C61.1598 106.029 60.9177 105.328 60.378 104.954L53.0342 99.8534C52.2093 99.281 51.117 99.6899 50.6943 100.528C50.3064 101.298 49.8364 101.946 49.2855 102.474C48.4089 103.316 47.4407 103.933 46.3808 104.33C45.3077 104.686 44.2584 104.862 43.2317 104.862C41.7838 104.862 40.4768 104.531 39.3043 103.872C38.1645 103.209 37.1932 102.303 36.3904 101.148C35.5834 99.9419 34.9665 98.5759 34.5415 97.0489C34.116 95.5201 33.9028 93.9229 33.9028 92.2554C33.9028 90.7703 34.0769 89.284 34.4256 87.7971C34.8122 86.3149 35.3715 84.9714 36.1021 83.7642C36.8665 82.5652 37.8188 81.6153 38.959 80.9084L38.9622 80.906C40.1285 80.1626 41.5084 79.7862 43.1136 79.7862C44.1419 79.7862 45.193 79.9632 46.2679 80.3201L46.2745 80.3219L46.2812 80.3237C47.3743 80.6305 48.3769 81.2011 49.2902 82.0413L49.295 82.0454C49.8866 82.5682 50.3932 83.2343 50.8124 84.0498C51.2641 84.9277 52.4514 85.3195 53.2686 84.6445L60.0238 79.0586C60.5345 78.6362 60.7116 77.9128 60.4011 77.308C58.925 74.4351 56.7964 72.1056 54.0202 70.3219C50.9753 68.3199 47.4146 67.3234 43.3498 67.3234C39.9613 67.3234 36.902 68.042 34.1788 69.4847C31.505 70.8766 29.2293 72.7558 27.3537 75.1213C25.4823 77.4815 24.0492 80.1195 23.0545 83.0331Z" fill="#BC9EFF" stroke="white"/>
<path d="M251.247 109.747C250.595 109.747 250.066 109.219 250.066 108.567V87.6797L243.354 102.504C243.163 102.926 242.743 103.198 242.279 103.198H237.662C237.198 103.198 236.777 102.926 236.586 102.504L229.873 87.6797V108.567C229.873 109.219 229.345 109.747 228.693 109.747H219.541C218.889 109.747 218.36 109.219 218.36 108.567V69.0344C218.36 68.3825 218.889 67.8544 219.541 67.8544H230.178C230.64 67.8544 231.06 68.1234 231.252 68.5435L239.475 86.5049C239.685 86.9651 240.339 86.9645 240.549 86.5049L248.748 68.5447C248.94 68.124 249.36 67.8544 249.822 67.8544H260.399C261.052 67.8544 261.58 68.3825 261.58 69.0344V108.567C261.58 109.219 261.052 109.747 260.399 109.747H251.247Z" fill="white"/>
<path d="M212.415 99.7164C213.068 99.7164 213.596 100.245 213.596 100.897V108.567C213.596 109.219 213.068 109.747 212.415 109.747H184.311C183.659 109.747 183.13 109.219 183.13 108.567V69.0344C183.13 68.3825 183.659 67.8544 184.311 67.8544H211.884C212.537 67.8544 213.065 68.3825 213.065 69.0344V76.7049C213.065 77.3569 212.537 77.885 211.884 77.885H195.824C195.172 77.885 194.643 78.4131 194.643 79.0651V82.6053C194.643 83.2573 195.172 83.7854 195.824 83.7854H209.286C209.939 83.7854 210.467 84.3135 210.467 84.9655V91.9279C210.467 92.5799 209.939 93.108 209.286 93.108H195.824C195.172 93.108 194.643 93.6361 194.643 94.2881V98.5364C194.643 99.1884 195.172 99.7164 195.824 99.7164H212.415Z" fill="white"/>
<path d="M168.884 117.772C168.232 117.772 167.703 117.244 167.703 116.592V110.927C167.703 110.275 167.175 109.747 166.523 109.747H138.241C137.588 109.747 137.06 109.219 137.06 108.567V69.0344C137.06 68.3825 137.588 67.8544 138.241 67.8544H147.392C148.045 67.8544 148.573 68.3825 148.573 69.0344V98.5364C148.573 99.1884 149.102 99.7164 149.754 99.7164H159.142C159.795 99.7164 160.323 99.1884 160.323 98.5364V69.0344C160.323 68.3825 160.851 67.8544 161.504 67.8544H170.656C171.308 67.8544 171.837 68.3825 171.837 69.0344V98.5364C171.837 99.1884 172.365 99.7164 173.017 99.7164H177.15C177.803 99.7164 178.331 100.245 178.331 100.897V116.592C178.331 117.244 177.803 117.772 177.15 117.772H168.884Z" fill="white"/>
<path d="M101.454 109.747C100.802 109.747 100.273 109.219 100.273 108.567V69.0344C100.273 68.3825 100.802 67.8544 101.454 67.8544H118.34C120.387 67.8544 122.276 68.2674 124.008 69.0934C125.741 69.9195 127.236 71.0406 128.496 72.4567C129.756 73.8332 130.72 75.3874 131.389 77.118C132.097 78.8486 132.451 80.5992 132.451 82.3693C132.451 84.8475 131.861 87.1882 130.68 89.3908C129.539 91.5934 127.925 93.403 125.839 94.8191C123.792 96.1957 121.391 96.8843 118.635 96.8843H112.967C112.315 96.8843 111.786 97.4123 111.786 98.0643V108.567C111.786 109.219 111.258 109.747 110.605 109.747H101.454ZM111.786 85.6735C111.786 86.3255 112.315 86.8536 112.967 86.8536H117.868C118.34 86.8536 118.793 86.7161 119.226 86.4406C119.659 86.165 120.013 85.693 120.288 85.0245C120.604 84.356 120.761 83.4709 120.761 82.3693C120.761 81.1892 120.584 80.2847 120.229 79.6551C119.915 78.9866 119.501 78.5341 118.989 78.298C118.517 78.0225 118.045 77.885 117.572 77.885H112.967C112.315 77.885 111.786 78.4131 111.786 79.0651V85.6735Z" fill="white"/>
<path d="M94.3281 99.7164C94.9806 99.7164 95.509 100.245 95.509 100.897V108.567C95.509 109.219 94.9806 109.747 94.3281 109.747H66.2234C65.5715 109.747 65.0425 109.219 65.0425 108.567V69.0344C65.0425 68.3825 65.5715 67.8544 66.2234 67.8544H93.7967C94.4492 67.8544 94.9776 68.3825 94.9776 69.0344V76.7049C94.9776 77.3569 94.4492 77.885 93.7967 77.885H77.7369C77.085 77.885 76.556 78.4131 76.556 79.0651V82.6053C76.556 83.2573 77.085 83.7854 77.7369 83.7854H91.1988C91.8513 83.7854 92.3797 84.3135 92.3797 84.9655V91.9279C92.3797 92.5799 91.8513 93.108 91.1988 93.108H77.7369C77.085 93.108 76.556 93.6361 76.556 94.2881V98.5364C76.556 99.1884 77.085 99.7164 77.7369 99.7164H94.3281Z" fill="white"/>
<path d="M21.9169 88.4468C21.9169 85.8901 22.3893 83.3919 23.334 80.9533C24.318 78.4751 25.7351 76.233 27.5851 74.2268C29.4352 72.2207 31.6788 70.6276 34.3161 69.4475C36.9927 68.2279 40.004 67.6184 43.3498 67.6184C47.3648 67.6184 50.8679 68.4639 53.8596 70.1556C56.519 71.6242 58.5719 73.5282 60.0179 75.8671C60.329 76.3704 60.1714 77.0201 59.6884 77.3635L52.9893 82.1263C52.3564 82.5765 51.4737 82.2956 51.0751 81.6295C50.6412 80.9043 50.1133 80.3054 49.4904 79.8322C48.5456 79.0846 47.5025 78.5736 46.361 78.2981C45.2589 77.9836 44.1764 77.8261 43.1136 77.8261C41.4604 77.8261 40.0236 78.1606 38.8034 78.8291C37.6226 79.4587 36.6385 80.3042 35.8512 81.3663C35.1033 82.4284 34.5326 83.6084 34.139 84.9065C33.7847 86.2046 33.6076 87.5027 33.6076 88.8008C33.6076 90.2564 33.824 91.6524 34.2571 92.9901C34.69 94.3277 35.3199 95.5272 36.1465 96.5893C36.9731 97.6118 37.9768 98.4184 39.1577 99.0085C40.3779 99.5985 41.7359 99.8935 43.2317 99.8935C44.2945 99.8935 45.3769 99.736 46.4791 99.4215C47.5812 99.0675 48.585 98.5169 49.4904 97.7694C50.0649 97.295 50.5526 96.7173 50.9529 96.037C51.3261 95.4021 52.1391 95.1077 52.7715 95.4853L60.0769 99.8475C60.5764 100.145 60.7902 100.767 60.5262 101.285C59.6831 102.94 58.445 104.384 56.8118 105.617C54.8829 107.073 52.6982 108.194 50.258 108.98C47.8174 109.728 45.3966 110.101 42.9955 110.101C39.8859 110.101 37.0321 109.492 34.4342 108.272C31.8756 107.014 29.6517 105.361 27.7623 103.316C25.9122 101.231 24.4755 98.9099 23.4521 96.3533C22.4286 93.7571 21.9169 91.1214 21.9169 88.4468Z" fill="white"/>
<path d="M68.1954 39.8276C68.1954 50.2982 60.8858 58.7088 51.9584 58.7088C43.0307 58.7088 35.7214 50.2982 35.7214 39.8276C35.7214 29.357 43.0307 20.9464 51.9584 20.9464C60.8858 20.9464 68.1954 29.357 68.1954 39.8276ZM52.2536 50.4483C56.8787 50.4483 60.5197 45.7582 60.5197 40.1226C60.5197 34.487 56.8787 29.7969 52.2536 29.7969C47.6286 29.7969 43.9875 34.487 43.9875 40.1226C43.9875 45.7582 47.6286 50.4483 52.2536 50.4483Z" fill="#F7AC1E" fill-opacity="0.8" stroke="white"/>
<path d="M51.9141 52.5134C49.5229 52.5134 47.353 52.0709 45.4046 51.1858C43.4561 50.2713 41.7734 49.0617 40.3563 47.5571C38.9688 46.023 37.8913 44.3119 37.1237 42.4238C36.3857 40.5062 36.0166 38.5295 36.0166 36.4939C36.0166 34.3993 36.4152 32.4079 37.2123 30.5198C38.0094 28.6316 39.1164 26.95 40.5335 25.4749C41.98 23.9703 43.6775 22.7903 45.626 21.9347C47.604 21.0791 49.759 20.6514 52.0913 20.6514C54.4825 20.6514 56.6524 21.1086 58.6008 22.0232C60.5493 22.9083 62.2173 24.1178 63.6048 25.6519C64.9923 27.186 66.0551 28.9119 66.7931 30.8295C67.5607 32.7177 67.9445 34.6648 67.9445 36.6709C67.9445 38.736 67.5459 40.7127 66.7489 42.6008C65.9813 44.4889 64.8742 46.1853 63.4277 47.6899C62.0106 49.165 60.3279 50.345 58.3794 51.2301C56.431 52.0857 54.2759 52.5134 51.9141 52.5134ZM44.7846 36.5824C44.7846 37.6445 44.9322 38.677 45.2274 39.6801C45.5227 40.6537 45.9655 41.5387 46.5559 42.3353C47.1464 43.1023 47.8844 43.7219 48.7701 44.1939C49.6852 44.6364 50.7628 44.8577 52.0027 44.8577C53.2426 44.8577 54.3202 44.6217 55.2353 44.1496C56.1505 43.6776 56.8886 43.0433 57.4495 42.2468C58.0399 41.4207 58.468 40.5209 58.7337 39.5473C59.0289 38.5443 59.1765 37.5265 59.1765 36.4939C59.1765 35.4318 59.0289 34.414 58.7337 33.4404C58.4385 32.4669 57.9956 31.5966 57.4052 30.8295C56.8148 30.033 56.062 29.4134 55.1468 28.9709C54.2316 28.5284 53.1688 28.3071 51.9584 28.3071C50.7185 28.3071 49.641 28.5431 48.7258 29.0152C47.8401 29.4872 47.1021 30.1215 46.5116 30.918C45.9212 31.6851 45.4784 32.5701 45.1832 33.5732C44.9175 34.5468 44.7846 35.5498 44.7846 36.5824Z" fill="#FDF36D"/>
</g>
</g>
<defs>
<filter id="filter0_ddd_0_32" x="-8.12048" y="-3.83398" width="299.738" height="169.816" filterUnits="userSpaceOnUse" color-interpolation-filters="sRGB">
<feFlood flood-opacity="0" result="BackgroundImageFix"/>
<feColorMatrix in="SourceAlpha" type="matrix" values="0 0 0 0 0 0 0 0 0 0 0 0 0 0 0 0 0 0 127 0" result="hardAlpha"/>
<feOffset dy="8"/>
<feGaussianBlur stdDeviation="7.5"/>
<feColorMatrix type="matrix" values="0 0 0 0 0.505882 0 0 0 0 0.286275 0 0 0 0 0.964706 0 0 0 0.4 0"/>
<feBlend mode="normal" in2="BackgroundImageFix" result="effect1_dropShadow_0_32"/>
<feColorMatrix in="SourceAlpha" type="matrix" values="0 0 0 0 0 0 0 0 0 0 0 0 0 0 0 0 0 0 127 0" result="hardAlpha"/>
<feOffset dy="10"/>
<feGaussianBlur stdDeviation="10"/>
<feColorMatrix type="matrix" values="0 0 0 0 0.505882 0 0 0 0 0.286275 0 0 0 0 0.964706 0 0 0 0.5 0"/>
<feBlend mode="normal" in2="effect1_dropShadow_0_32" result="effect2_dropShadow_0_32"/>
<feColorMatrix in="SourceAlpha" type="matrix" values="0 0 0 0 0 0 0 0 0 0 0 0 0 0 0 0 0 0 127 0" result="hardAlpha"/>
<feOffset dy="4"/>
<feGaussianBlur stdDeviation="5"/>
<feComposite in2="hardAlpha" operator="out"/>
<feColorMatrix type="matrix" values="0 0 0 0 0.420995 0 0 0 0 0.229888 0 0 0 0 0.820272 0 0 0 0.7 0"/>
<feBlend mode="normal" in2="effect2_dropShadow_0_32" result="effect3_dropShadow_0_32"/>
<feBlend mode="normal" in="SourceGraphic" in2="effect3_dropShadow_0_32" result="shape"/>
</filter>
<linearGradient id="paint0_linear_0_32" x1="141.748" y1="6.16594" x2="141.748" y2="135.982" gradientUnits="userSpaceOnUse">
<stop stop-color="#D384FD"/>
<stop offset="1" stop-color="#8567F7"/>
</linearGradient>
<linearGradient id="paint1_linear_0_32" x1="141.748" y1="6.16602" x2="141.748" y2="135.982" gradientUnits="userSpaceOnUse">
<stop stop-color="#D384FD"/>
<stop offset="1" stop-color="#8567F7"/>
</linearGradient>
<linearGradient id="paint2_linear_0_32" x1="141.748" y1="6.16602" x2="141.748" y2="135.982" gradientUnits="userSpaceOnUse">
<stop stop-color="#D384FD"/>
<stop offset="1" stop-color="#8567F7"/>
</linearGradient>
<linearGradient id="paint3_linear_0_32" x1="141.748" y1="6.16602" x2="141.748" y2="135.982" gradientUnits="userSpaceOnUse">
<stop stop-color="#D384FD"/>
<stop offset="1" stop-color="#8567F7"/>
</linearGradient>
<linearGradient id="paint4_linear_0_32" x1="141.748" y1="6.16602" x2="141.748" y2="135.982" gradientUnits="userSpaceOnUse">
<stop stop-color="#D384FD"/>
<stop offset="1" stop-color="#8567F7"/>
</linearGradient>
<linearGradient id="paint5_linear_0_32" x1="141.748" y1="6.16602" x2="141.748" y2="135.982" gradientUnits="userSpaceOnUse">
<stop stop-color="#D384FD"/>
<stop offset="1" stop-color="#8567F7"/>
</linearGradient>
<linearGradient id="paint6_linear_0_32" x1="141.748" y1="6.16603" x2="141.748" y2="135.982" gradientUnits="userSpaceOnUse">
<stop stop-color="#D384FD"/>
<stop offset="1" stop-color="#8567F7"/>
</linearGradient>
<linearGradient id="paint7_linear_0_32" x1="141.748" y1="6.16605" x2="141.748" y2="135.982" gradientUnits="userSpaceOnUse">
<stop stop-color="#D384FD"/>
<stop offset="1" stop-color="#8567F7"/>
</linearGradient>
<clipPath id="clip0_0_32">
<rect width="284" height="154" fill="white"/>
</clipPath>
</defs>
</svg>
